CATALOG 0000000000000
FILE "Sonic the Hedgehog CD (Dec 4, 1992 prototype) (Track 1).bin" BINARY
  TRACK 01 MODE1/2352
    INDEX 01 00:00:00
FILE "Sonic the Hedgehog CD (Dec 4, 1992 prototype) (Track 2).bin" BINARY
  TRACK 02 AUDIO
    INDEX 00 00:00:00
    INDEX 01 00:02:00
FILE "Sonic the Hedgehog CD (Dec 4, 1992 prototype) (Track 3).bin" BINARY
  TRACK 03 AUDIO
    INDEX 00 00:00:00
    INDEX 01 00:02:00
FILE "Sonic the Hedgehog CD (Dec 4, 1992 prototype) (Track 4).bin" BINARY
  TRACK 04 AUDIO
    INDEX 00 00:00:00
    INDEX 01 00:02:00
FILE "Sonic the Hedgehog CD (Dec 4, 1992 prototype) (Track 5).bin" BINARY
  TRACK 05 AUDIO
    INDEX 00 00:00:00
    INDEX 01 00:02:00
FILE "Sonic the Hedgehog CD (Dec 4, 1992 prototype) (Track 6).bin" BINARY
  TRACK 06 AUDIO
    INDEX 00 00:00:00
    INDEX 01 00:02:00
FILE "Sonic the Hedgehog CD (Dec 4, 1992 prototype) (Track 7).bin" BINARY
  TRACK 07 AUDIO
    INDEX 00 00:00:00
    INDEX 01 00:02:00
